<svg xmlns="http://www.w3.org/2000/svg" width="50" height="50" viewBox="0 0 22.624 22.624"  xmlns:v="https://vecta.io/nano"><circle r="11.312" cx="11.312" cy="11.312" fill="#005b99"/><path d="M11.312 7.979c-1.152 0-2.226.349-3.115.943V4.779c0-.765-.533-1.385-1.298-1.385s-1.212.62-1.212 1.385v8.826c0 3.107 2.518 5.626 5.624 5.626a5.63 5.63 0 0 0 5.625-5.626 5.63 5.63 0 0 0-5.625-5.625zm0 8.741c-1.721 0-3.115-1.395-3.115-3.116s1.394-3.115 3.115-3.115 3.116 1.394 3.116 3.115-1.394 3.116-3.116 3.116z" fill="#fff"/></svg>