<svg width="190" height="133" viewBox="0 0 190 133" fill="none" xmlns="http://www.w3.org/2000/svg">
<path fill-rule="evenodd" clip-rule="evenodd" d="M74.9085 21.0766C71.455 19.1035 66.1646 17.9512 57.5385 18.9266C42.4414 20.6337 30.1826 32.6152 23.8623 51.5146C17.577 70.3094 17.8098 94.5889 26.9771 117.358C28.5831 121.347 26.6552 125.885 22.6709 127.492C18.6866 129.1 14.1548 127.17 12.5488 123.181C2.05767 97.1236 1.60072 69.0267 9.11076 46.5697C16.5858 24.2173 32.6075 6.07165 55.7927 3.45003C66.3076 2.26106 75.2855 3.35957 82.6187 7.54932C90.0461 11.7929 94.6508 18.5543 97.6704 26.3617C100.64 34.039 102.29 43.2753 103.52 53.3125C104.346 60.054 105.021 67.535 105.735 75.459C106.083 79.318 106.44 83.282 106.829 87.3168C107.857 97.9887 112.068 104.498 117.177 108.315C122.442 112.248 129.502 113.942 137.096 113.29C152.841 111.938 167.036 101.184 168.98 87.0061C172.922 58.243 168.076 34.0389 165.236 19.8579C164.65 16.9308 164.15 14.4307 163.83 12.4057C163.158 8.15773 166.053 4.16897 170.296 3.49661C174.539 2.82426 178.523 5.7229 179.195 9.97092C179.443 11.542 179.87 13.6463 180.393 16.2239C183.192 30.0209 188.742 57.3792 184.392 89.1235C181.162 112.691 158.977 127.043 138.426 128.808C127.872 129.714 116.804 127.469 107.874 120.797C98.7879 114.009 92.7354 103.247 91.3442 88.8128C90.931 84.5255 90.5625 80.4343 90.2101 76.5211C89.5114 68.7634 88.8757 61.7057 88.0797 55.2091C86.8836 45.4483 85.4094 37.7921 83.1637 31.9857C80.9683 26.3094 78.2678 22.996 74.9085 21.0766Z" fill="#F7CB50"/>
<path fill-rule="evenodd" clip-rule="evenodd" d="M73.4203 23.6815C70.7144 22.1355 66.1353 20.9736 57.8756 21.9076C44.3318 23.439 32.8024 34.2406 26.7074 52.4661C20.6577 70.5563 20.8476 94.1014 29.76 116.238C31.9836 121.761 29.3158 128.046 23.7937 130.274C18.2698 132.504 11.9902 129.826 9.7659 124.302C-0.979939 97.6114 -1.48005 68.7801 6.26568 45.6183C13.9601 22.6099 30.7032 3.26789 55.4556 0.469045C66.3343 -0.761048 76.0245 0.32666 84.107 4.94452C92.3201 9.63698 97.291 17.064 100.468 25.2795C103.577 33.3165 105.261 42.8565 106.498 52.9477C107.33 59.7366 108.008 67.257 108.72 75.1565L108.723 75.1897C109.071 79.0501 109.427 83.005 109.815 87.029C110.774 96.9751 114.628 102.666 118.973 105.911C123.532 109.318 129.819 110.904 136.84 110.301C151.632 109.031 164.309 98.9884 166.007 86.5988C169.876 58.3729 165.128 34.5973 162.295 20.4469L162.284 20.3916C161.707 17.509 161.196 14.9599 160.867 12.8742C159.937 6.99325 163.945 1.46572 169.827 0.533609C175.71 -0.398636 181.228 3.6207 182.158 9.50251C182.394 10.9939 182.805 13.0224 183.333 15.6275L183.342 15.6728C186.151 29.5189 191.784 57.2818 187.364 89.5308C183.885 114.917 160.149 129.954 138.682 131.797C127.558 132.752 115.717 130.401 106.078 123.201C96.2248 115.839 89.8189 104.257 88.3581 89.1006C87.9439 84.8035 87.5747 80.7039 87.2224 76.7926L87.2222 76.7902C86.5224 69.0205 85.8911 62.0135 85.102 55.574C83.9123 45.8655 82.472 38.5138 80.3657 33.0679C78.33 27.8045 75.9972 25.1538 73.4203 23.6815ZM57.5385 18.9266C66.1647 17.9512 71.455 19.1036 74.9085 21.0767C78.2678 22.996 80.9683 26.3094 83.1637 31.9858C85.4094 37.7921 86.8836 45.4483 88.0797 55.2091C88.8758 61.7057 89.5114 68.7634 90.2101 76.5211C90.5626 80.4343 90.9311 84.5256 91.3443 88.8128C92.7354 103.247 98.788 114.009 107.874 120.797C116.804 127.469 127.872 129.714 138.426 128.808C158.977 127.043 181.162 112.691 184.392 89.1235C188.742 57.3792 183.192 30.0209 180.393 16.2239C179.87 13.6463 179.443 11.5421 179.195 9.97095C178.523 5.72293 174.539 2.82428 170.296 3.49664C166.053 4.169 163.158 8.15775 163.83 12.4058C164.15 14.4303 164.65 16.9298 165.236 19.8561L165.237 19.858C168.076 34.0391 172.922 58.2431 168.98 87.0061C167.036 101.184 152.841 111.938 137.096 113.29C129.502 113.942 122.442 112.248 117.177 108.315C112.068 104.498 107.857 97.9887 106.829 87.3168C106.44 83.2828 106.083 79.3194 105.735 75.4611L105.735 75.459C105.021 67.5353 104.346 60.0538 103.52 53.3126C102.29 43.2753 100.64 34.039 97.6705 26.3617C94.6509 18.5544 90.0462 11.7929 82.6188 7.54935C75.2856 3.35959 66.3077 2.26109 55.7927 3.45005C32.6075 6.07168 16.5858 24.2174 9.1108 46.5697C1.60076 69.0267 2.05771 97.1236 12.5488 123.181C14.1549 127.17 18.6867 129.1 22.6709 127.492C26.6552 125.885 28.5832 121.347 26.9771 117.358C17.8099 94.5889 17.577 70.3094 23.8623 51.5147C30.1826 32.6152 42.4414 20.6337 57.5385 18.9266Z" fill="#F7CB50"/>
</svg>
