<svg viewBox="0 0 25 10">
    <path d="M2.37 8.96h19.31l-.92-1.45h-8.38v1.45h-.5V7.51H3.31zm-.3 0l-.21-.14 2.33-3.59H3.5L1.02 8.96zm2.6-4.48L6.1 2.24h-.63L3.99 4.48zm1.94-3L7.1.75h-.64l-.49.75zM7.69.73l-.49.75h4.68V.75h.5v.75h4.56l-.39-.62.21-.13zm-1 1.49L5.27 4.48h6.61V2.24zm-1.93 3l-1.13 1.8h8.25V5.23zm7.59-3v2.26h6.46l-1.39-2.24zm0 3v1.8h8.06l-1.1-1.79zM17.1.75l.47.75h.76l-.5-.75zm.95 1.49l1.42 2.24h.83l-1.52-2.24zm1.89 3l1.09 1.78 1.15 1.8-.21.14h1.25l-2.46-3.73zM3 4.7V1.85c0-.19.08-.35.27-.35H5.1L5.96.2a.38.38 0 01.31-.18h11.71a.41.41 0 01.3.2l.82 1.28h2a.4.4 0 01.4.35v3a.28.28 0 010 .09l2.75 4.16a.39.39 0 010 .38.36.36 0 01-.32.2H.36a.39.39 0 01-.32-.19.38.38 0 010-.37zm.73-1.11l.9-1.35h-.9zm15.9-1.35l1.08 1.64V2.24z">
    </path>
</svg>
