<svg width="13" height="13">
    <path xmlns="http://www.w3.org/2000/svg" d="M6 .19l-.3.1a6.22 6.22 0 00-1.59.79 5.72 5.72 0 00-1.9 2.14 4.27 4.27 0 00-.38 2.9 4 4 0 00.59 1.38 5.35 5.35 0 001 1.12 3.79 3.79 0 001.32.73 3.4 3.4 0 001.52.13 5.45 5.45 0 001.44-.43A7.4 7.4 0 009 8.32a11.5 11.5 0 001.15-.91c.37-.33.71-.68 1-1l.5-.52a3.18 3.18 0 01.47-.41.42.42 0 01.48.1 2.75 2.75 0 01.17.29 1.57 1.57 0 00-.3-.7.36.36 0 00-.23-.17.62.62 0 00-.25 0 1.12 1.12 0 00-.37.21l-.28.25-.52.51c-.34.33-.69.65-1 1s-.73.59-1.11.86A6.09 6.09 0 016.18 9a3.22 3.22 0 01-2.5-.71A4.36 4.36 0 012.16 6a3.68 3.68 0 01-.09-1.36 4.29 4.29 0 01.38-1.33 5.36 5.36 0 011.78-2.12A7.8 7.8 0 016 .19zm0 0A2.81 2.81 0 017.2 0c3.2.18 5.51 1.8 5.63 5.93a1.29 1.29 0 01.1.48A6.47 6.47 0 110 6.45C0 3.4 2 .56 4.92.15A2.62 2.62 0 016 .19zm0 0zm6.79 5.75v-.09.2z" fill-rule="evenodd" fill="#bbda16"/>
</svg>
