<?xml version="1.0" encoding="UTF-8"?>
<svg enable-background="new 0 0 393.541 393.541" style="" version="1.1" viewBox="0 0 600 600" xml:space="preserve" xmlns="http://www.w3.org/2000/svg">
<g>
  <path d="m1.75 300.38c0-164.43 133.53-297.63 298.38-297.63s298.38 133.19 298.38 297.63c0 164.43-133.53 297.63-298.38 297.63s-298.38-133.19-298.38-297.63z"/>
  <path d="m485.29 469.33-121.2-58.267-0.913-264.13c-0.021-6.166 6.416-10.229 11.973-7.557l114.91 55.256c2.893 1.391 4.733 4.318 4.733 7.528v261.2c-1e-3 4.881-5.098 8.086-9.496 5.971z" fill="#484848"/>
  <path d="m364.09 411.06-131.18-63.072 126.29-207.92c2.231-3.673 6.886-5.054 10.759-3.192l116.51 56.029c4.454 2.142 6.085 7.661 3.51 11.879l-125.89 206.28z" fill="#6d6d6d"/>
  <path d="m364.09 411.06-131.18-63.072-120.24-195.8c-3.35-5.455 2.479-11.914 8.248-9.14l111.99 53.853 131.18 214.16z" fill="#b6b6b6"/>
  <path d="m223.41 469.33-118.41-56.94c-2.295-1.104-3.754-3.425-3.754-5.971v-262.62c0-4.726 4.937-7.831 9.197-5.782l122.46 58.889v266.45c0 4.881-5.098 8.086-9.496 5.971z" fill="#fff"/>
  <path d="m42-41h0.5 0.5-0.5-0.5z"/>
</g>
</svg>
